<svg id="ic_user-role" xmlns="http://www.w3.org/2000/svg" width="24" height="24" viewBox="0 0 24 24">
  <rect id="Rectangle_554" data-name="Rectangle 554" width="24" height="24" fill="none"/>
  <g id="surface1" transform="translate(2.25 2.25)">
    <path id="Path_66" data-name="Path 66" d="M13.5,5a5.246,5.246,0,0,0-2.933,9.6A7.517,7.517,0,0,0,6,21.5H7.5a5.966,5.966,0,0,1,1.79-4.277l1.8,2.285,2.827-1.884-.832-1.248-1.673,1.116-.926-1.178A5.966,5.966,0,0,1,13.5,15.5,5.25,5.25,0,0,0,13.5,5Zm0,1.5a3.75,3.75,0,1,1-3.75,3.75A3.739,3.739,0,0,1,13.5,6.5Zm6,8.25v1.582a3.659,3.659,0,0,0-1.3.551l-1.131-1.125-1.058,1.061,1.125,1.122a3.668,3.668,0,0,0-.557,1.31H15v1.5h1.576a3.667,3.667,0,0,0,.557,1.31l-1.125,1.122,1.058,1.061L18.2,23.117a3.66,3.66,0,0,0,1.3.551V25.25H21V23.668a3.66,3.66,0,0,0,1.3-.551l1.131,1.125,1.058-1.061L23.367,22.06a3.668,3.668,0,0,0,.557-1.31H25.5v-1.5H23.924a3.669,3.669,0,0,0-.557-1.31l1.125-1.122-1.058-1.061L22.3,16.883a3.659,3.659,0,0,0-1.3-.551V14.75Zm.75,3A2.25,2.25,0,1,1,18,20,2.239,2.239,0,0,1,20.25,17.75Zm0,1.5A.75.75,0,1,0,21,20,.751.751,0,0,0,20.25,19.25Z" transform="translate(-6 -5)" fill="#5791e8"/>
  </g>
</svg>
