<svg width="16" height="16" viewBox="0 0 16 16" fill="none" xmlns="http://www.w3.org/2000/svg">
<path d="M7.25 9.5V5H8.75V9.5H7.25Z" fill="#D1BC00"/>
<path d="M7.25 11.5V10H8.75V11.5H7.25Z" fill="#D1BC00"/>
<path fill-rule="evenodd" clip-rule="evenodd" d="M8 2C6.81331 2 5.65328 2.35189 4.66658 3.01118C3.67989 3.67047 2.91085 4.60754 2.45673 5.7039C2.0026 6.80026 1.88378 8.00666 2.11529 9.17054C2.3468 10.3344 2.91825 11.4035 3.75736 12.2426C4.59648 13.0818 5.66558 13.6532 6.82946 13.8847C7.99335 14.1162 9.19975 13.9974 10.2961 13.5433C11.3925 13.0892 12.3295 12.3201 12.9888 11.3334C13.6481 10.3467 14 9.18669 14 8C14 6.4087 13.3679 4.88258 12.2426 3.75736C11.1174 2.63214 9.5913 2 8 2ZM8 3.5C8.89002 3.5 9.76005 3.76392 10.5001 4.25839C11.2401 4.75285 11.8169 5.45566 12.1575 6.27792C12.4981 7.10019 12.5872 8.00499 12.4135 8.87791C12.2399 9.75082 11.8113 10.5526 11.182 11.182C10.5526 11.8113 9.75082 12.2399 8.87791 12.4135C8.00499 12.5872 7.10019 12.4981 6.27793 12.1575C5.45566 11.8169 4.75286 11.2401 4.25839 10.5001C3.76392 9.76005 3.5 8.89002 3.5 8C3.5 6.80653 3.97411 5.66193 4.81802 4.81802C5.66194 3.97411 6.80653 3.5 8 3.5Z" fill="#D1BC00"/>
</svg>
